<?xml version="1.0" encoding="utf-8"?>
<!-- Generator: Adobe Illustrator 26.4.1, SVG Export Plug-In . SVG Version: 6.00 Build 0)  -->
<svg version="1.1" xmlns="http://www.w3.org/2000/svg" xmlns:xlink="http://www.w3.org/1999/xlink" x="0px" y="0px"
	 viewBox="0 0 1480 1480" style="enable-background:new 0 0 1480 1480;" xml:space="preserve">
<style type="text/css">
	.st0{display:none;fill:#FFFFFF;}
	.st1{fill:#DADADA;}
	.st2{fill:#FFFFFF;}
	.st3{display:none;}
	.st4{display:inline;}
	.st5{fill:none;stroke:#000000;stroke-width:50;stroke-miterlimit:10;}
	.st6{fill:none;stroke:#000000;stroke-width:3;stroke-miterlimit:10;}
	.st7{fill:#1C1C1C;}
	.st8{fill:#292D38;}
	.st9{fill:#8D303C;}
	.st10{fill:#ECD0A8;}
	.st11{fill:#F1E5D7;}
	.st12{fill:#486E51;}
	.st13{fill:#47616E;}
	.st14{fill:none;stroke:#F9B233;stroke-width:3;stroke-miterlimit:10;}
</style>
<g id="Fondo_Blanco">
	<rect id="Fondo" x="0" class="st0" width="1480" height="1480"/>
	<g id="Joystick">
		<path id="g" class="st1" d="M1219.6,410.9c-12.8,8.1-25.9,15.8-39.1,23.2c-11.9-4.4-23.9-8.6-36-12.6c-0.5-0.2-0.9-0.3-1.4-0.5
			c-101.3-33.5-209.3-54.8-321.7-61.7c-25.7-1.6-51.6-2.4-77.7-2.5c-1.2,0-2.4,0-3.6,0c-1.2,0-2.4,0-3.6,0c-15,0-30,0.3-45,0.9
			v112.5h129.8v-54.9c58.9,3.6,116.6,11.2,172.8,22.4c22.6,4.5,45,9.6,67.1,15.3c-99.8,33.9-208.1,52.4-321.2,52.4
			S518.6,486.9,418.8,453c22.1-5.7,44.5-10.8,67.1-15.3c38.2-7.6,77.1-13.6,116.6-17.7v-56c-92.3,9.7-181.2,29.1-265.5,57
			c-0.5,0.2-0.9,0.3-1.4,0.5c-12.1,4-24.1,8.2-36,12.6c-13.2-7.4-26.3-15.1-39.1-23.2c24.6-11.2,49.7-21.6,75.2-31.1
			c0.5-0.2,0.9-0.3,1.4-0.5h0c2.6-1,5.3-1.9,7.9-2.9c2-0.7,4-1.4,5.9-2.1c1.1-0.4,2.2-0.8,3.4-1.2c2.2-0.8,4.4-1.6,6.6-2.3
			c2.5-0.9,5-1.7,7.4-2.5c0.3-0.1,0.7-0.2,1-0.3c2.5-0.9,5.1-1.7,7.6-2.5c0,0,0,0,0.1,0c2.6-0.9,5.1-1.7,7.7-2.5
			c1.9-0.6,3.8-1.2,5.6-1.8c1.3-0.4,2.6-0.8,3.9-1.2c2.2-0.7,4.4-1.4,6.6-2c1-0.3,1.9-0.6,2.9-0.9c1.6-0.5,3.3-1,4.9-1.5
			c0.4-0.1,0.8-0.2,1.2-0.4c2.5-0.7,5-1.5,7.5-2.2c2.5-0.7,5.1-1.5,7.6-2.2c0.4-0.1,0.8-0.2,1.2-0.3c2.4-0.7,4.7-1.3,7.1-2
			c0.4-0.1,0.9-0.2,1.3-0.4c1.6-0.4,3.2-0.9,4.8-1.3c1.2-0.3,2.5-0.7,3.7-1c0.1,0,0.1,0,0.2,0c2.3-0.6,4.6-1.2,6.9-1.8
			c2.4-0.6,4.8-1.2,7.2-1.8c8.8-2.2,17.7-4.3,26.7-6.4c2.1-0.5,4.3-1,6.5-1.4c3.6-0.8,7.3-1.6,10.9-2.4c1.9-0.4,3.7-0.8,5.6-1.2
			c2.1-0.4,4.3-0.9,6.4-1.3c3.4-0.7,6.8-1.3,10.2-2c1.6-0.3,3.2-0.6,4.8-0.9c0.8-0.1,1.6-0.3,2.5-0.4c1.8-0.3,3.6-0.6,5.4-1
			c4.5-0.8,9-1.6,13.5-2.3c1.2-0.2,2.4-0.4,3.6-0.6c1.2-0.2,2.4-0.4,3.5-0.6c1.4-0.2,2.7-0.4,4.1-0.6c0.7-0.1,1.3-0.2,2-0.3
			c3.3-0.5,6.7-1,10-1.5c0.6-0.1,1.1-0.2,1.7-0.2c1.7-0.2,3.4-0.5,5.1-0.7c0.6-0.1,1.1-0.2,1.7-0.2c1.8-0.3,3.7-0.5,5.5-0.7
			c3.1-0.4,6.2-0.8,9.3-1.2c1.9-0.2,3.8-0.5,5.7-0.7c0.2,0,0.4,0,0.5-0.1c0.2,0,0.4-0.1,0.6-0.1c1.6-0.2,3.2-0.4,4.8-0.5
			c0.1,0,0.2,0,0.3,0c1.8-0.2,3.5-0.4,5.3-0.6c3.7-0.4,7.4-0.8,11-1.1c7.4-0.7,14.8-1.4,22.2-2c1.9-0.1,3.7-0.3,5.6-0.4
			c3.7-0.3,7.4-0.5,11.2-0.8c1.9-0.1,3.7-0.2,5.6-0.4c7.5-0.5,14.9-0.8,22.4-1.1c3.7-0.2,7.5-0.3,11.2-0.4c1.5-0.1,3-0.1,4.5-0.1
			c0.5,0,1,0,1.4,0c1.3,0,2.7-0.1,4-0.1c0.7,0,1.3,0,2,0c1.4,0,2.8,0,4.2-0.1c0.4,0,0.9,0,1.3,0c1.6,0,3.3,0,4.9-0.1
			c3.8-0.1,7.5-0.1,11.3-0.1c1.2,0,2.4,0,3.6,0c1.2,0,2.4,0,3.6,0c3.6,0,7.2,0,10.8,0.1c2.9,0,5.8,0.1,8.7,0.1
			c1.6,0,3.2,0.1,4.9,0.1c1.2,0,2.5,0.1,3.7,0.1c6,0.2,11.9,0.4,17.9,0.6c1.9,0.1,3.8,0.2,5.7,0.2c2.2,0.1,4.5,0.2,6.7,0.3
			c1,0,2.1,0.1,3.1,0.2c2.2,0.1,4.4,0.2,6.6,0.4c3.2,0.2,6.4,0.4,9.5,0.6c1.8,0.1,3.5,0.2,5.3,0.4c1.8,0.1,3.5,0.3,5.3,0.4
			c1.8,0.1,3.5,0.3,5.2,0.4c5.2,0.4,10.5,0.9,15.7,1.4c1.7,0.2,3.5,0.3,5.2,0.5c1.7,0.2,3.5,0.3,5.2,0.5c3.5,0.4,7,0.8,10.4,1.1
			c2.5,0.3,5,0.6,7.5,0.9c1.5,0.2,3,0.4,4.6,0.6c7,0.9,13.9,1.8,20.8,2.8c1.9,0.3,3.8,0.6,5.6,0.8c2.1,0.3,4.2,0.6,6.2,0.9
			c0.1,0,0.1,0,0.2,0c1.6,0.2,3.1,0.5,4.7,0.8c2.6,0.4,5.2,0.8,7.9,1.3c2.1,0.3,4.2,0.7,6.3,1.1c2.1,0.4,4.2,0.7,6.3,1.1
			c7.8,1.4,15.6,2.9,23.3,4.4c1.4,0.3,2.7,0.5,4.1,0.8c7,1.4,13.9,2.9,20.8,4.4c1,0.2,2.1,0.5,3.1,0.7c4,0.9,8,1.8,12.1,2.8
			c1.7,0.4,3.4,0.8,5.1,1.2c2,0.5,4.1,1,6.1,1.5c7.6,1.9,15.2,3.8,22.8,5.9c1.7,0.4,3.3,0.9,4.9,1.3c1.6,0.4,3.3,0.9,4.9,1.4
			c1.6,0.5,3.3,0.9,4.9,1.4c3.3,0.9,6.6,1.9,9.8,2.8c3.2,0.9,6.3,1.9,9.5,2.8c6.6,2,13.2,4.1,19.8,6.2c1.6,0.5,3.2,1,4.8,1.6
			c1.6,0.5,3.2,1.1,4.8,1.6c4.8,1.6,9.6,3.2,14.4,4.9c1.5,0.5,2.9,1,4.4,1.5c2.1,0.7,4.2,1.5,6.3,2.2c4.4,1.6,8.8,3.2,13.2,4.8h0
			c0.5,0.2,0.9,0.3,1.4,0.5C1170,389.3,1195,399.7,1219.6,410.9z"/>
		<path id="borde" class="st2" d="M1342.1,506.4c0.2,1,0.4,2,0.6,3c11.2,62.1-20.5,124-76.7,152.6c-34.4,17.6-69.8,33.4-106.1,47.6
			c-19.5,7.6-39.2,14.6-59.2,21.2c-113.4,37.1-234.6,57.2-360.4,57.2s-247-20.1-360.5-57.2c-20-6.5-39.7-13.6-59.2-21.2
			c-36.4-14.2-72-30.1-106.5-47.8c-56.9-29-88.6-92-76.3-154.7c0.2-1,0.4-2.1,0.6-3.1c11.6-53.2,47.8-83.3,58.8-91.8
			c1.3-0.7,2.7-1.4,4-2.1c34.6,25.8,71.2,49.2,109.4,69.8c18,9.8,36.4,18.9,55.1,27.4c114.1,52.1,241,81.1,374.6,81.1
			s260.5-29,374.6-81.1c18.7-8.5,37.1-17.7,55.1-27.4c38.2-20.7,74.8-44,109.4-69.8c1.3,0.7,2.7,1.4,4,2.1
			C1294,420.5,1331.1,451.6,1342.1,506.4z"/>
		<path class="st2" d="M941,944.6l-97.6,105.6l27.1-95.3l6.5-22.9l35.9-96.6c-57.3,8.3-115.1,12.5-172.9,12.5c-3,0-6,0-9,0
			c-54.8-0.4-109.6-4.6-163.9-12.5l35.5,96.6l6.2,22l27,96.1L539,944.6c-152.1,18.4-214,52.4-214,104.3
			c0,68.4,185.8,123.8,415,123.8c229.2,0,415-55.4,415-123.8C1155,996.9,1093.4,962.9,941,944.6z"/>
	</g>
</g>
<g id="Lore">
</g>
<g id="Fondo_Negro" class="st3">
</g>
<g id="Lore_00000160163167672940548090000016498067698377682834_">
</g>
<g id="Logotipo_FB">
</g>
<g id="Logotipo_FN">
</g>
<g id="Paleta">
</g>
<g id="Guías" class="st3">
	
		<image style="display:inline;overflow:visible;" width="640" height="1250" xlink:href="1221FE71.jpg"  transform="matrix(4.4616 0 0 4.4616 -16.1798 237.6966)">
	</image>
	<g id="Guías_00000118379479258338400940000008125278666515135663_" class="st4">
		<path class="st14" d="M740-1414.3c-639.8,0-1158.5,518.7-1158.5,1158.5c0,8.9,0.1,17.7,0.3,26.5c8,354.4,175,669.4,432.6,876.6
			c33.5,26.9,68.5,52,104.9,75.2c17.1,10.9,34.5,21.3,52.1,31.3c-1.5-16.7-2.2-33.5-2.2-50.6c0-61.5,9.7-120.7,27.7-176.2
			c1.3-0.7,2.7-1.4,4-2.1c17.2,12.8,34.9,25,53,36.6c18.3,11.7,37.1,22.8,56.4,33.2c18,9.8,36.4,18.9,55.1,27.4
			c114.1,52.1,241,81.1,374.6,81.1s260.5-29,374.6-81.1c18.7-8.5,37.1-17.7,55.1-27.4c19.2-10.4,38-21.5,56.4-33.2
			c18.1-11.6,35.8-23.8,53-36.6c1.3,0.7,2.7,1.4,4,2.1c18,55.5,27.7,114.8,27.7,176.2c0,17-0.8,33.9-2.2,50.6
			c17.7-10,35.1-20.4,52.1-31.3c36.4-23.1,71.4-48.2,104.9-75.2c257.6-207.2,424.6-522.3,432.6-876.6c0.2-8.8,0.3-17.6,0.3-26.5
			C1898.5-895.7,1379.8-1414.3,740-1414.3z M1241.5,512.4c-0.9,0.6-1.7,1.1-2.6,1.7c-2,1.3-4,2.7-6,4c-2,1.3-4,2.6-6,3.9
			c-0.9,0.6-1.8,1.2-2.7,1.7c-1.6,1-3.2,2.1-4.9,3.1c-0.6,0.4-1.1,0.7-1.7,1c-1.7,1.1-3.4,2.1-5.2,3.2c-0.2,0.2-0.5,0.3-0.7,0.5
			c-0.7,0.4-1.3,0.8-2,1.2c-1.4,0.9-2.8,1.7-4.2,2.6c-2.7,1.6-5.3,3.2-8,4.8c-1.1,0.6-2.1,1.2-3.2,1.9c-1.5,0.9-3,1.7-4.5,2.6
			c-0.3,0.2-0.6,0.3-0.9,0.5c-1,0.6-2,1.1-3,1.7c-1.3,0.7-2.5,1.4-3.8,2.1c-1.7,1-3.4,1.9-5.1,2.9c-3.4,1.9-6.9,3.8-10.4,5.7
			c-22.6,12.2-45.8,23.4-69.6,33.6c-109.6,47.2-230.3,73.3-357.2,73.3s-247.6-26.1-357.2-73.3c-23.7-10.2-46.9-21.4-69.6-33.6
			c-3.5-1.9-6.9-3.7-10.4-5.7c-1.7-0.9-3.4-1.9-5.1-2.9c-1.3-0.7-2.5-1.4-3.8-2.1c-1-0.6-2-1.1-3-1.7c-0.3-0.2-0.6-0.4-0.9-0.5
			c-1.5-0.9-3-1.7-4.5-2.6c-1.1-0.6-2.1-1.2-3.2-1.9c-2.7-1.6-5.4-3.2-8-4.8c-1.4-0.9-2.8-1.7-4.2-2.6c-0.7-0.4-1.3-0.8-2-1.2
			c-0.2-0.2-0.5-0.3-0.7-0.5c-1.7-1-3.5-2.1-5.2-3.2c-0.6-0.3-1.1-0.7-1.7-1c-1.6-1-3.3-2.1-4.9-3.1c-0.9-0.6-1.8-1.2-2.7-1.7
			c-2-1.3-4-2.6-6-3.9c-2-1.3-4-2.6-6-4c-0.8-0.6-1.7-1.1-2.5-1.7c-1.9-1.3-3.8-2.5-5.7-3.8c33.4-16.3,67.7-31,102.7-44.1
			c0.5-0.2,0.9-0.3,1.4-0.5h0c2.6-1,5.3-2,7.9-2.9c2-0.7,4-1.4,6-2.1c1.1-0.4,2.2-0.8,3.4-1.2c2.2-0.8,4.4-1.6,6.6-2.3
			c2.5-0.9,5-1.7,7.4-2.6c0.3-0.1,0.7-0.2,1-0.3c2.5-0.9,5.1-1.7,7.6-2.5c0,0,0,0,0.1,0c2.6-0.9,5.2-1.7,7.7-2.5
			c1.9-0.6,3.8-1.2,5.6-1.8c1.3-0.4,2.6-0.8,3.9-1.2c2.2-0.7,4.4-1.4,6.6-2c1-0.3,1.9-0.6,2.9-0.9c1.6-0.5,3.3-1,4.9-1.5
			c0.4-0.1,0.8-0.2,1.2-0.4c2.5-0.7,5-1.5,7.5-2.2c2.5-0.7,5.1-1.5,7.6-2.2c0.4-0.1,0.8-0.2,1.2-0.3c2.4-0.7,4.7-1.3,7.1-2
			c0.4-0.1,0.9-0.2,1.3-0.4c1.6-0.4,3.2-0.9,4.8-1.3c1.2-0.3,2.5-0.7,3.7-1c0.1,0,0.1,0,0.2,0c2.3-0.6,4.6-1.2,6.9-1.8
			c2.4-0.6,4.8-1.2,7.2-1.8c8.8-2.2,17.7-4.3,26.7-6.3c2.2-0.5,4.3-1,6.5-1.4c3.6-0.8,7.3-1.6,10.9-2.4c1.9-0.4,3.7-0.8,5.6-1.2
			c2.2-0.4,4.3-0.9,6.4-1.3c3.4-0.7,6.8-1.3,10.2-2c1.6-0.3,3.2-0.6,4.8-0.9c0.8-0.2,1.6-0.3,2.5-0.5c1.8-0.3,3.6-0.6,5.4-1
			c4.5-0.8,9-1.6,13.5-2.3c1.2-0.2,2.4-0.4,3.6-0.6c1.2-0.2,2.4-0.4,3.5-0.6c1.4-0.2,2.7-0.4,4.1-0.6c0.7-0.1,1.3-0.2,2-0.3
			c3.3-0.5,6.7-1,10-1.5c0.6-0.1,1.1-0.2,1.7-0.2c1.7-0.2,3.4-0.5,5.1-0.7c0.6-0.1,1.1-0.2,1.7-0.2c1.8-0.3,3.7-0.5,5.5-0.7
			c3.1-0.4,6.2-0.8,9.3-1.2c1.9-0.2,3.8-0.5,5.7-0.7c0.2,0,0.3,0,0.5-0.1c0.2,0,0.4,0,0.7-0.1c1.6-0.2,3.2-0.4,4.8-0.6
			c0.1,0,0.2,0,0.3,0c1.8-0.2,3.5-0.4,5.3-0.6c3.7-0.4,7.4-0.8,11-1.1c7.4-0.7,14.8-1.4,22.2-2c1.9-0.1,3.7-0.3,5.6-0.4
			c3.7-0.3,7.4-0.5,11.2-0.8c1.9-0.1,3.7-0.2,5.6-0.4c7.5-0.5,14.9-0.8,22.4-1.1c3.7-0.2,7.5-0.3,11.2-0.4c1.5,0,3-0.1,4.5-0.1
			c0.5,0,1,0,1.4,0c1.3,0,2.7-0.1,4-0.1c0.7,0,1.3,0,2,0c1.4,0,2.8,0,4.2-0.1c0.4,0,0.9,0,1.3,0c1.6,0,3.3,0,4.9-0.1
			c3.8,0,7.5-0.1,11.3-0.1c1.2,0,2.4,0,3.6,0s2.4,0,3.6,0c3.6,0,7.2,0,10.8,0.1c2.9,0,5.8,0.1,8.7,0.1c1.6,0,3.2,0.1,4.9,0.1
			c1.2,0,2.5,0.1,3.7,0.1c6,0.2,11.9,0.4,17.9,0.6c1.9,0.1,3.8,0.2,5.7,0.2c2.2,0.1,4.5,0.2,6.7,0.3c1,0.1,2.1,0.1,3.1,0.2
			c2.2,0.1,4.4,0.2,6.6,0.4c3.2,0.2,6.4,0.4,9.5,0.6c1.8,0.1,3.5,0.2,5.3,0.4c1.8,0.1,3.5,0.3,5.3,0.4c1.8,0.1,3.5,0.3,5.2,0.4
			c5.2,0.4,10.5,0.9,15.7,1.4c1.7,0.2,3.5,0.3,5.2,0.5c1.7,0.2,3.5,0.4,5.2,0.5c3.5,0.4,7,0.8,10.4,1.1c2.5,0.3,5,0.6,7.5,0.9
			c1.5,0.2,3,0.4,4.5,0.6c7,0.9,13.9,1.8,20.8,2.8c1.9,0.3,3.8,0.6,5.6,0.8c2.1,0.3,4.2,0.6,6.2,0.9c0.1,0,0.1,0,0.2,0
			c1.6,0.2,3.2,0.5,4.7,0.8c2.6,0.4,5.2,0.8,7.9,1.3c2.1,0.4,4.2,0.7,6.3,1.1c2.1,0.4,4.2,0.7,6.3,1.1c7.8,1.4,15.6,2.8,23.3,4.4
			c1.4,0.3,2.7,0.5,4.1,0.8c7,1.4,13.9,2.9,20.8,4.4c1,0.2,2.1,0.5,3.1,0.7c4,0.9,8,1.8,12.1,2.8c1.7,0.4,3.4,0.8,5.1,1.2
			c2,0.5,4.1,1,6.1,1.5c7.6,1.9,15.2,3.8,22.8,5.9c1.7,0.4,3.3,0.9,4.9,1.3c1.6,0.4,3.3,0.9,4.9,1.4c1.6,0.5,3.3,0.9,4.9,1.4
			c3.3,0.9,6.6,1.9,9.8,2.8c3.2,0.9,6.3,1.9,9.5,2.8c6.6,2,13.2,4.1,19.8,6.2c1.6,0.5,3.2,1,4.8,1.6c1.6,0.5,3.2,1.1,4.8,1.6
			c4.8,1.6,9.6,3.2,14.4,4.9c1.5,0.5,2.9,1,4.4,1.5c2.1,0.7,4.2,1.5,6.3,2.2c4.4,1.6,8.8,3.2,13.2,4.8h0c0.5,0.2,0.9,0.3,1.4,0.5
			c35.1,13.1,69.4,27.8,102.7,44.1C1245.3,509.9,1243.4,511.2,1241.5,512.4z"/>
		<path class="st14" d="M1898.2-229.3c-14.1-627.6-527.2-1132-1158.2-1132S-404.1-856.9-418.2-229.3c-0.2,8.8-0.3,17.7-0.3,26.5
			c0,350.3,155.4,664.2,401.1,876.6c42.9,37.1,88.6,71.1,136.6,101.7c19.6,12.5,39.7,24.4,60.1,35.7c46.8,25.9,95.6,48.7,146.1,68.1
			c36.1,13.9,73.2,26,110.9,36.2c38.9,10.5,78.6,19.1,119,25.5c19.9,3.2,39.9,5.9,60.1,8c40.9,4.4,82.4,6.6,124.4,6.6
			s83.5-2.2,124.4-6.6c20.2-2.2,40.2-4.8,60.1-8c40.4-6.5,80.1-15,119-25.5c37.8-10.2,74.8-22.3,110.9-36.2
			c50.5-19.3,99.3-42.1,146.1-68.1c20.4-11.3,40.5-23.2,60.1-35.7c48.1-30.6,93.7-64.6,136.6-101.7
			c245.7-212.4,401.1-526.4,401.1-876.6C1898.5-211.7,1898.4-220.5,1898.2-229.3z M1241.5,512.4c-0.9,0.6-1.7,1.1-2.6,1.7
			c-2,1.3-4,2.7-6,4c-2,1.3-4,2.6-6,3.9c-0.9,0.6-1.8,1.2-2.7,1.7c-1.6,1-3.2,2.1-4.9,3.1c-0.6,0.4-1.1,0.7-1.7,1
			c-1.7,1.1-3.4,2.1-5.2,3.2c-0.2,0.2-0.5,0.3-0.7,0.5c-0.7,0.4-1.3,0.8-2,1.2c-1.4,0.9-2.8,1.7-4.2,2.6c-2.7,1.6-5.3,3.2-8,4.8
			c-1.1,0.6-2.1,1.2-3.2,1.9c-1.5,0.9-3,1.7-4.5,2.6c-0.3,0.2-0.6,0.3-0.9,0.5c-1,0.6-2,1.1-3,1.7c-1.3,0.7-2.5,1.4-3.8,2.1
			c-1.7,1-3.4,1.9-5.1,2.9c-3.4,1.9-6.9,3.8-10.4,5.7c-22.6,12.2-45.8,23.4-69.6,33.6c-109.6,47.2-230.3,73.3-357.2,73.3
			s-247.6-26.1-357.2-73.3c-23.7-10.2-46.9-21.4-69.6-33.6c-3.5-1.9-6.9-3.7-10.4-5.7c-1.7-0.9-3.4-1.9-5.1-2.9
			c-1.3-0.7-2.5-1.4-3.8-2.1c-1-0.6-2-1.1-3-1.7c-0.3-0.2-0.6-0.4-0.9-0.5c-1.5-0.9-3-1.7-4.5-2.6c-1.1-0.6-2.1-1.2-3.2-1.9
			c-2.7-1.6-5.4-3.2-8-4.8c-1.4-0.9-2.8-1.7-4.2-2.6c-0.7-0.4-1.3-0.8-2-1.2c-0.2-0.2-0.5-0.3-0.7-0.5c-1.7-1-3.5-2.1-5.2-3.2
			c-0.6-0.3-1.1-0.7-1.7-1c-1.6-1-3.3-2.1-4.9-3.1c-0.9-0.6-1.8-1.2-2.7-1.7c-2-1.3-4-2.6-6-3.9c-2-1.3-4-2.6-6-4
			c-0.8-0.6-1.7-1.1-2.5-1.7c-1.9-1.3-3.8-2.5-5.7-3.8c33.4-16.3,67.7-31,102.7-44.1c0.5-0.2,0.9-0.3,1.4-0.5h0c2.6-1,5.3-2,7.9-2.9
			c2-0.7,4-1.4,6-2.1c1.1-0.4,2.2-0.8,3.4-1.2c2.2-0.8,4.4-1.6,6.6-2.3c2.5-0.9,5-1.7,7.4-2.6c0.3-0.1,0.7-0.2,1-0.3
			c2.5-0.9,5.1-1.7,7.6-2.5c0,0,0,0,0.1,0c2.6-0.9,5.2-1.7,7.7-2.5c1.9-0.6,3.8-1.2,5.6-1.8c1.3-0.4,2.6-0.8,3.9-1.2
			c2.2-0.7,4.4-1.4,6.6-2c1-0.3,1.9-0.6,2.9-0.9c1.6-0.5,3.3-1,4.9-1.5c0.4-0.1,0.8-0.2,1.2-0.4c2.5-0.7,5-1.5,7.5-2.2
			c2.5-0.7,5.1-1.5,7.6-2.2c0.4-0.1,0.8-0.2,1.2-0.3c2.4-0.7,4.7-1.3,7.1-2c0.4-0.1,0.9-0.2,1.3-0.4c1.6-0.4,3.2-0.9,4.8-1.3
			c1.2-0.3,2.5-0.7,3.7-1c0.1,0,0.1,0,0.2,0c2.3-0.6,4.6-1.2,6.9-1.8c2.4-0.6,4.8-1.2,7.2-1.8c8.8-2.2,17.7-4.3,26.7-6.3
			c2.2-0.5,4.3-1,6.5-1.4c3.6-0.8,7.3-1.6,10.9-2.4c1.9-0.4,3.7-0.8,5.6-1.2c2.2-0.4,4.3-0.9,6.4-1.3c3.4-0.7,6.8-1.3,10.2-2
			c1.6-0.3,3.2-0.6,4.8-0.9c0.8-0.2,1.6-0.3,2.5-0.5c1.8-0.3,3.6-0.6,5.4-1c4.5-0.8,9-1.6,13.5-2.3c1.2-0.2,2.4-0.4,3.6-0.6
			c1.2-0.2,2.4-0.4,3.5-0.6c1.4-0.2,2.7-0.4,4.1-0.6c0.7-0.1,1.3-0.2,2-0.3c3.3-0.5,6.7-1,10-1.5c0.6-0.1,1.1-0.2,1.7-0.2
			c1.7-0.2,3.4-0.5,5.1-0.7c0.6-0.1,1.1-0.2,1.7-0.2c1.8-0.3,3.7-0.5,5.5-0.7c3.1-0.4,6.2-0.8,9.3-1.2c1.9-0.2,3.8-0.5,5.7-0.7
			c0.2,0,0.3,0,0.5-0.1c0.2,0,0.4,0,0.7-0.1c1.6-0.2,3.2-0.4,4.8-0.6c0.1,0,0.2,0,0.3,0c1.8-0.2,3.5-0.4,5.3-0.6
			c3.7-0.4,7.4-0.8,11-1.1c7.4-0.7,14.8-1.4,22.2-2c1.9-0.1,3.7-0.3,5.6-0.4c3.7-0.3,7.4-0.5,11.2-0.8c1.9-0.1,3.7-0.2,5.6-0.4
			c7.5-0.5,14.9-0.8,22.4-1.1c3.7-0.2,7.5-0.3,11.2-0.4c1.5,0,3-0.1,4.5-0.1c0.5,0,1,0,1.4,0c1.3,0,2.7-0.1,4-0.1c0.7,0,1.3,0,2,0
			c1.4,0,2.8,0,4.2-0.1c0.4,0,0.9,0,1.3,0c1.6,0,3.3,0,4.9-0.1c3.8,0,7.5-0.1,11.3-0.1c1.2,0,2.4,0,3.6,0s2.4,0,3.6,0
			c3.6,0,7.2,0,10.8,0.1c2.9,0,5.8,0.1,8.7,0.1c1.6,0,3.2,0.1,4.9,0.1c1.2,0,2.5,0.1,3.7,0.1c6,0.2,11.9,0.4,17.9,0.6
			c1.9,0.1,3.8,0.2,5.7,0.2c2.2,0.1,4.5,0.2,6.7,0.3c1,0.1,2.1,0.1,3.1,0.2c2.2,0.1,4.4,0.2,6.6,0.4c3.2,0.2,6.4,0.4,9.5,0.6
			c1.8,0.1,3.5,0.2,5.3,0.4c1.8,0.1,3.5,0.3,5.3,0.4c1.8,0.1,3.5,0.3,5.2,0.4c5.2,0.4,10.5,0.9,15.7,1.4c1.7,0.2,3.5,0.3,5.2,0.5
			c1.7,0.2,3.5,0.4,5.2,0.5c3.5,0.4,7,0.8,10.4,1.1c2.5,0.3,5,0.6,7.5,0.9c1.5,0.2,3,0.4,4.5,0.6c7,0.9,13.9,1.8,20.8,2.8
			c1.9,0.3,3.8,0.6,5.6,0.8c2.1,0.3,4.2,0.6,6.2,0.9c0.1,0,0.1,0,0.2,0c1.6,0.2,3.2,0.5,4.7,0.8c2.6,0.4,5.2,0.8,7.9,1.3
			c2.1,0.4,4.2,0.7,6.3,1.1c2.1,0.4,4.2,0.7,6.3,1.1c7.8,1.4,15.6,2.8,23.3,4.4c1.4,0.3,2.7,0.5,4.1,0.8c7,1.4,13.9,2.9,20.8,4.4
			c1,0.2,2.1,0.5,3.1,0.7c4,0.9,8,1.8,12.1,2.8c1.7,0.4,3.4,0.8,5.1,1.2c2,0.5,4.1,1,6.1,1.5c7.6,1.9,15.2,3.8,22.8,5.9
			c1.7,0.4,3.3,0.9,4.9,1.3c1.6,0.4,3.3,0.9,4.9,1.4c1.6,0.5,3.3,0.9,4.9,1.4c3.3,0.9,6.6,1.9,9.8,2.8c3.2,0.9,6.3,1.9,9.5,2.8
			c6.6,2,13.2,4.1,19.8,6.2c1.6,0.5,3.2,1,4.8,1.6c1.6,0.5,3.2,1.1,4.8,1.6c4.8,1.6,9.6,3.2,14.4,4.9c1.5,0.5,2.9,1,4.4,1.5
			c2.1,0.7,4.2,1.5,6.3,2.2c4.4,1.6,8.8,3.2,13.2,4.8h0c0.5,0.2,0.9,0.3,1.4,0.5c35.1,13.1,69.4,27.8,102.7,44.1
			C1245.3,509.9,1243.4,511.2,1241.5,512.4z M1159.7,824.3c-19.5,7.6-39.2,14.6-59.2,21.2C987,882.5,865.8,902.6,740,902.6
			s-247-20.1-360.5-57.2c-20-6.5-39.7-13.6-59.2-21.2c-51.5-20-101.3-43.7-148.9-70.6c-1.5-16.7-2.2-33.5-2.2-50.6
			c0-61.5,9.7-120.7,27.7-176.2c1.3-0.7,2.7-1.4,4-2.1c17.2,12.8,34.9,25,53,36.6c18.3,11.7,37.1,22.8,56.4,33.2
			c18,9.8,36.4,18.9,55.1,27.4c114.1,52.1,241,81.1,374.6,81.1s260.5-29,374.6-81.1c18.7-8.5,37.1-17.7,55.1-27.4
			c19.2-10.4,38-21.5,56.4-33.2c18.1-11.6,35.8-23.8,53-36.6c1.3,0.7,2.7,1.4,4,2.1c18,55.5,27.7,114.8,27.7,176.2
			c0,17-0.8,33.9-2.2,50.6C1261,780.6,1211.2,804.2,1159.7,824.3z"/>
		<path class="st14" d="M1100.4,845.4c-16.5,25.3-35.6,48.8-56.9,70c-29.1,29-62.4,53.9-98.8,73.6c0,0,0,0,0,0
			c-16,8.7-32.6,16.4-49.8,23l17.5-42.1l12.1-29c-19.9,3.2-39.9,5.9-60.1,8c-40.9,4.4-82.4,6.6-124.4,6.6s-83.5-2.2-124.4-6.6
			c-20.2-2.2-40.2-4.8-60.1-8l12.1,29l17.5,42.1c-17.2-6.6-33.8-14.3-49.8-23c0,0,0,0,0,0c-36.4-19.8-69.7-44.6-98.8-73.6
			c-21.3-21.2-40.4-44.7-56.9-70C493,882.5,614.2,902.6,740,902.6S987,882.5,1100.4,845.4z"/>
		<path class="st14" d="M1144.5,464.5c-0.5-0.2-0.9-0.3-1.4-0.5c-101.3-37.6-209.3-61.5-321.7-69.2c-25.7-1.8-51.6-2.7-77.7-2.8
			c-1.2,0-2.4,0-3.6,0s-2.4,0-3.6,0c-15,0-30,0.4-45,1c-30,1.2-59.6,3.6-89,7.1c-92.3,10.9-181.2,32.7-265.5,64
			c-0.5,0.2-1,0.3-1.4,0.5c0.1-0.3,0.2-0.7,0.4-1c17.4-47.8,43.1-91.7,75.4-129.8c78.9-93.5,196.9-152.8,328.7-152.8
			s249.9,59.4,328.7,152.8c32.2,38.2,57.9,82,75.4,129.8C1144.2,463.8,1144.3,464.2,1144.5,464.5z"/>
		<path class="st14" d="M1169.7,594.6c-18,9.8-36.4,18.9-55.1,27.4c-114.1,52.1-241,81.1-374.6,81.1s-260.5-29-374.6-81.1
			c-18.7-8.5-37.1-17.7-55.1-27.4c0.1-2.3,0.2-4.6,0.3-6.9c0.5-10.2,1.4-20.3,2.7-30.3c22.6,12.2,45.8,23.4,69.6,33.6
			c109.6,47.2,230.3,73.3,357.2,73.3s247.6-26.1,357.2-73.3c23.7-10.2,46.9-21.4,69.6-33.6c1.2,10,2.1,20.1,2.7,30.3
			C1169.5,590,1169.6,592.3,1169.7,594.6z"/>
		<path class="st14" d="M1279.1,524.8c-17.2,12.8-34.9,25-53,36.6c-18.3,11.7-37.1,22.8-56.4,33.2c-18,9.8-36.4,18.9-55.1,27.4
			c-114.1,52.1-241,81.1-374.6,81.1s-260.5-29-374.6-81.1c-18.7-8.5-37.1-17.7-55.1-27.4c-19.2-10.4-38-21.5-56.4-33.2
			c-18.1-11.6-35.8-23.8-53-36.6c10.5-5.6,21.2-10.9,31.9-16.2c1.9,1.3,3.8,2.6,5.7,3.8c0.9,0.6,1.7,1.1,2.5,1.7c2,1.3,4,2.7,6,4
			c2,1.3,4,2.6,6,3.9c0.9,0.6,1.8,1.2,2.7,1.7c1.6,1,3.2,2.1,4.9,3.1c0.6,0.4,1.1,0.7,1.7,1c1.7,1.1,3.4,2.1,5.2,3.2
			c0.2,0.2,0.5,0.3,0.7,0.5c0.7,0.4,1.3,0.8,2,1.2c1.4,0.9,2.8,1.7,4.2,2.6c2.7,1.6,5.3,3.2,8,4.8c1.1,0.6,2.1,1.2,3.2,1.9
			c1.5,0.9,3,1.7,4.5,2.6c0.3,0.2,0.6,0.3,0.9,0.5c1,0.6,2,1.1,3,1.7c1.3,0.7,2.5,1.4,3.8,2.1c1.7,1,3.4,1.9,5.1,2.9
			c3.4,1.9,6.9,3.8,10.4,5.7c22.6,12.2,45.8,23.4,69.6,33.6c109.6,47.2,230.3,73.3,357.2,73.3s247.6-26.1,357.2-73.3
			c23.7-10.2,46.9-21.4,69.6-33.6c3.5-1.9,6.9-3.7,10.4-5.7c1.7-0.9,3.4-1.9,5.1-2.9c1.3-0.7,2.5-1.4,3.8-2.1c1-0.6,2-1.1,3-1.7
			c0.3-0.2,0.6-0.4,0.9-0.5c1.5-0.9,3-1.7,4.5-2.6c1.1-0.6,2.1-1.2,3.2-1.9c2.7-1.6,5.4-3.2,8-4.8c1.4-0.9,2.8-1.7,4.2-2.6
			c0.7-0.4,1.3-0.8,2-1.2c0.2-0.2,0.5-0.3,0.7-0.5c1.7-1,3.4-2.1,5.2-3.2c0.6-0.3,1.1-0.7,1.7-1c1.6-1,3.3-2.1,4.9-3.1
			c0.9-0.6,1.8-1.2,2.7-1.7c2-1.3,4-2.6,6-3.9c2-1.3,4-2.6,6-4c0.9-0.6,1.7-1.1,2.6-1.7c1.9-1.3,3.8-2.5,5.7-3.8
			C1257.9,513.8,1268.6,519.2,1279.1,524.8z"/>
		<path class="st14" d="M1497.4,673.8c-10.4-9-21-17.9-31.8-26.5c-33.5-26.9-68.5-52-104.9-75.2c-25.2-16-51.1-31.2-77.6-45.2
			c18,55.5,27.7,114.8,27.7,176.2c0,17-0.8,33.9-2.2,50.6c-47.6,26.9-97.4,50.5-148.9,70.6c-19.5,7.6-39.2,14.6-59.2,21.2
			C987,882.5,865.8,902.6,740,902.6s-247-20.1-360.5-57.2c-20-6.5-39.7-13.6-59.2-21.2c-51.5-20-101.3-43.7-148.9-70.6
			c-1.5-16.7-2.2-33.5-2.2-50.6c0-61.5,9.7-120.7,27.7-176.2c-26.5,14.1-52.4,29.2-77.6,45.2c-36.4,23.1-71.4,48.2-104.9,75.2
			c-10.8,8.6-21.3,17.5-31.8,26.5c-245.7,212.4-401.1,526.4-401.1,876.6c0,639.8,518.7,1158.5,1158.5,1158.5
			s1158.5-518.7,1158.5-1158.5C1898.5,1200.2,1743,886.2,1497.4,673.8z M535.2,989.1C535.2,989.1,535.2,989.1,535.2,989.1
			c16,8.7,32.6,16.4,49.8,23L567.5,970l-12.1-29c19.9,3.2,39.9,5.9,60.1,8c40.9,4.4,82.4,6.6,124.4,6.6s83.5-2.2,124.4-6.6
			c20.2-2.2,40.2-4.8,60.1-8l-12.1,29l-17.5,42.1c17.2-6.6,33.8-14.3,49.8-23c0,0,0,0,0,0c41.9,27.7,77.9,63.6,105.6,105.5
			c-76.8,84.2-187.4,137.1-310.3,137.1s-233.6-52.8-310.3-137.1C457.4,1052.7,493.3,1016.8,535.2,989.1z"/>
		<path class="st14" d="M1643.4-219.9C1643.4-220,1643.4-220,1643.4-219.9c-10.4-490.1-410.9-884.2-903.4-884.2
			S-153-710.1-163.4-220c0,0,0,0,0,0.1c-0.1,6.5-0.2,12.9-0.2,19.4c0,258.7,108.7,492,282.9,656.7c25,23.7,51.4,45.9,79,66.6
			c0.9,0.7,1.8,1.3,2.6,2c17.2,12.8,34.9,25,53,36.6c18.3,11.7,37.1,22.8,56.4,33.2c18,9.8,36.4,18.9,55.1,27.4
			c114.1,52.1,241,81.1,374.6,81.1s260.5-29,374.6-81.1c18.7-8.5,37.1-17.7,55.1-27.4c19.2-10.4,38-21.5,56.4-33.2
			c18.1-11.6,35.8-23.8,53-36.6c0.9-0.6,1.8-1.3,2.6-2c27.6-20.7,54-42.9,79-66.6c174.2-164.7,282.9-398,282.9-656.7
			C1643.6-207,1643.6-213.5,1643.4-219.9z M1241.5,512.4c-0.9,0.6-1.7,1.1-2.6,1.7c-2,1.3-4,2.7-6,4c-2,1.3-4,2.6-6,3.9
			c-0.9,0.6-1.8,1.2-2.7,1.7c-1.6,1-3.2,2.1-4.9,3.1c-0.6,0.4-1.1,0.7-1.7,1c-1.7,1.1-3.4,2.1-5.2,3.2c-0.2,0.2-0.5,0.3-0.7,0.5
			c-0.7,0.4-1.3,0.8-2,1.2c-1.4,0.9-2.8,1.7-4.2,2.6c-2.7,1.6-5.3,3.2-8,4.8c-1.1,0.6-2.1,1.2-3.2,1.9c-1.5,0.9-3,1.7-4.5,2.6
			c-0.3,0.2-0.6,0.3-0.9,0.5c-1,0.6-2,1.1-3,1.7c-1.3,0.7-2.5,1.4-3.8,2.1c-1.7,1-3.4,1.9-5.1,2.9c-3.4,1.9-6.9,3.8-10.4,5.7
			c-22.6,12.2-45.8,23.4-69.6,33.6c-109.6,47.2-230.3,73.3-357.2,73.3s-247.6-26.1-357.2-73.3c-23.7-10.2-46.9-21.4-69.6-33.6
			c-3.5-1.9-6.9-3.7-10.4-5.7c-1.7-0.9-3.4-1.9-5.1-2.9c-1.3-0.7-2.5-1.4-3.8-2.1c-1-0.6-2-1.1-3-1.7c-0.3-0.2-0.6-0.4-0.9-0.5
			c-1.5-0.9-3-1.7-4.5-2.6c-1.1-0.6-2.1-1.2-3.2-1.9c-2.7-1.6-5.4-3.2-8-4.8c-1.4-0.9-2.8-1.7-4.2-2.6c-0.7-0.4-1.3-0.8-2-1.2
			c-0.2-0.2-0.5-0.3-0.7-0.5c-1.7-1-3.5-2.1-5.2-3.2c-0.6-0.3-1.1-0.7-1.7-1c-1.6-1-3.3-2.1-4.9-3.1c-0.9-0.6-1.8-1.2-2.7-1.7
			c-2-1.3-4-2.6-6-3.9c-2-1.3-4-2.6-6-4c-0.8-0.6-1.7-1.1-2.5-1.7c-1.9-1.3-3.8-2.5-5.7-3.8c33.4-16.3,67.7-31,102.7-44.1
			c0.5-0.2,0.9-0.3,1.4-0.5h0c2.6-1,5.3-2,7.9-2.9c2-0.7,4-1.4,6-2.1c1.1-0.4,2.2-0.8,3.4-1.2c2.2-0.8,4.4-1.6,6.6-2.3
			c2.5-0.9,5-1.7,7.4-2.6c0.3-0.1,0.7-0.2,1-0.3c2.5-0.9,5.1-1.7,7.6-2.5c0,0,0,0,0.1,0c2.6-0.9,5.2-1.7,7.7-2.5
			c1.9-0.6,3.8-1.2,5.6-1.8c1.3-0.4,2.6-0.8,3.9-1.2c2.2-0.7,4.4-1.4,6.6-2c1-0.3,1.9-0.6,2.9-0.9c1.6-0.5,3.3-1,4.9-1.5
			c0.4-0.1,0.8-0.2,1.2-0.4c2.5-0.7,5-1.5,7.5-2.2c2.5-0.7,5.1-1.5,7.6-2.2c0.4-0.1,0.8-0.2,1.2-0.3c2.4-0.7,4.7-1.3,7.1-2
			c0.4-0.1,0.9-0.2,1.3-0.4c1.6-0.4,3.2-0.9,4.8-1.3c1.2-0.3,2.5-0.7,3.7-1c0.1,0,0.1,0,0.2,0c2.3-0.6,4.6-1.2,6.9-1.8
			c2.4-0.6,4.8-1.2,7.2-1.8c8.8-2.2,17.7-4.3,26.7-6.3c2.2-0.5,4.3-1,6.5-1.4c3.6-0.8,7.3-1.6,10.9-2.4c1.9-0.4,3.7-0.8,5.6-1.2
			c2.2-0.4,4.3-0.9,6.4-1.3c3.4-0.7,6.8-1.3,10.2-2c1.6-0.3,3.2-0.6,4.8-0.9c0.8-0.2,1.6-0.3,2.5-0.5c1.8-0.3,3.6-0.6,5.4-1
			c4.5-0.8,9-1.6,13.5-2.3c1.2-0.2,2.4-0.4,3.6-0.6c1.2-0.2,2.4-0.4,3.5-0.6c1.4-0.2,2.7-0.4,4.1-0.6c0.7-0.1,1.3-0.2,2-0.3
			c3.3-0.5,6.7-1,10-1.5c0.6-0.1,1.1-0.2,1.7-0.2c1.7-0.2,3.4-0.5,5.1-0.7c0.6-0.1,1.1-0.2,1.7-0.2c1.8-0.3,3.7-0.5,5.5-0.7
			c3.1-0.4,6.2-0.8,9.3-1.2c1.9-0.2,3.8-0.5,5.7-0.7c0.2,0,0.3,0,0.5-0.1c0.2,0,0.4,0,0.7-0.1c1.6-0.2,3.2-0.4,4.8-0.6
			c0.1,0,0.2,0,0.3,0c1.8-0.2,3.5-0.4,5.3-0.6c3.7-0.4,7.4-0.8,11-1.1c7.4-0.7,14.8-1.4,22.2-2c1.9-0.1,3.7-0.3,5.6-0.4
			c3.7-0.3,7.4-0.5,11.2-0.8c1.9-0.1,3.7-0.2,5.6-0.4c7.5-0.5,14.9-0.8,22.4-1.1c3.7-0.2,7.5-0.3,11.2-0.4c1.5,0,3-0.1,4.5-0.1
			c0.5,0,1,0,1.4,0c1.3,0,2.7-0.1,4-0.1c0.7,0,1.3,0,2,0c1.4,0,2.8,0,4.2-0.1c0.4,0,0.9,0,1.3,0c1.6,0,3.3,0,4.9-0.1
			c3.8,0,7.5-0.1,11.3-0.1c1.2,0,2.4,0,3.6,0s2.4,0,3.6,0c3.6,0,7.2,0,10.8,0.1c2.9,0,5.8,0.1,8.7,0.1c1.6,0,3.2,0.1,4.9,0.1
			c1.2,0,2.5,0.1,3.7,0.1c6,0.2,11.9,0.4,17.9,0.6c1.9,0.1,3.8,0.2,5.7,0.2c2.2,0.1,4.5,0.2,6.7,0.3c1,0.1,2.1,0.1,3.1,0.2
			c2.2,0.1,4.4,0.2,6.6,0.4c3.2,0.2,6.4,0.4,9.5,0.6c1.8,0.1,3.5,0.2,5.3,0.4c1.8,0.1,3.5,0.3,5.3,0.4c1.8,0.1,3.5,0.3,5.2,0.4
			c5.2,0.4,10.5,0.9,15.7,1.4c1.7,0.2,3.5,0.3,5.2,0.5c1.7,0.2,3.5,0.4,5.2,0.5c3.5,0.4,7,0.8,10.4,1.1c2.5,0.3,5,0.6,7.5,0.9
			c1.5,0.2,3,0.4,4.5,0.6c7,0.9,13.9,1.8,20.8,2.8c1.9,0.3,3.8,0.6,5.6,0.8c2.1,0.3,4.2,0.6,6.2,0.9c0.1,0,0.1,0,0.2,0
			c1.6,0.2,3.2,0.5,4.7,0.8c2.6,0.4,5.2,0.8,7.9,1.3c2.1,0.4,4.2,0.7,6.3,1.1c2.1,0.4,4.2,0.7,6.3,1.1c7.8,1.4,15.6,2.8,23.3,4.4
			c1.4,0.3,2.7,0.5,4.1,0.8c7,1.4,13.9,2.9,20.8,4.4c1,0.2,2.1,0.5,3.1,0.7c4,0.9,8,1.8,12.1,2.8c1.7,0.4,3.4,0.8,5.1,1.2
			c2,0.5,4.1,1,6.1,1.5c7.6,1.9,15.2,3.8,22.8,5.9c1.7,0.4,3.3,0.9,4.9,1.3c1.6,0.4,3.3,0.9,4.9,1.4c1.6,0.5,3.3,0.9,4.9,1.4
			c3.3,0.9,6.6,1.9,9.8,2.8c3.2,0.9,6.3,1.9,9.5,2.8c6.6,2,13.2,4.1,19.8,6.2c1.6,0.5,3.2,1,4.8,1.6c1.6,0.5,3.2,1.1,4.8,1.6
			c4.8,1.6,9.6,3.2,14.4,4.9c1.5,0.5,2.9,1,4.4,1.5c2.1,0.7,4.2,1.5,6.3,2.2c4.4,1.6,8.8,3.2,13.2,4.8h0c0.5,0.2,0.9,0.3,1.4,0.5
			c35.1,13.1,69.4,27.8,102.7,44.1C1245.3,509.9,1243.4,511.2,1241.5,512.4z"/>
		<path class="st14" d="M1643.6-260.4c0,258.7-108.7,492-282.9,656.7c-25,23.7-51.4,45.9-79,66.6c-0.9,0.7-1.8,1.3-2.6,2
			c-17.2,12.8-34.9,25-53,36.6c-2.1,1.4-4.3,2.7-6.4,4.1c-12.8,8-25.9,15.8-39.1,23.2c-3.6,2-7.2,4-10.8,6
			c-18,9.8-36.4,18.9-55.1,27.4c-114.1,52.1-241,81.1-374.6,81.1s-260.5-29-374.6-81.1c-18.7-8.5-37.1-17.7-55.1-27.4
			c-3.6-2-7.2-3.9-10.8-6c-13.2-7.4-26.3-15.1-39.1-23.2c-2.2-1.3-4.3-2.7-6.4-4.1c-18.1-11.6-35.8-23.8-53-36.6
			c-0.9-0.6-1.8-1.3-2.6-2c-27.6-20.7-54-42.9-79-66.6C-54.9,231.6-163.6-1.7-163.6-260.4c0-6.5,0.1-13,0.2-19.4c0,0,0,0,0-0.1
			C-153-769.9,247.5-1164,740-1164s893.1,394.1,903.4,884.1c0,0,0,0,0,0.1C1643.6-273.3,1643.6-266.9,1643.6-260.4z"/>
		<path class="st14" d="M1643.6-239.4c0,6.5-0.1,12.9-0.2,19.4c0,0,0,0,0,0.1c-5.3,250.9-112.8,476.7-282.7,637.2
			c-28.4,26.8-58.5,51.9-90.2,74.9c-7.7,5.6-15.5,11.1-23.4,16.4c-33.4-16.3-67.6-31-102.7-44.1c-0.5-0.2-0.9-0.3-1.4-0.5
			c-101.3-37.6-209.3-61.5-321.7-69.2c-25.7-1.8-51.6-2.7-77.7-2.8c-1.2,0-2.4,0-3.6,0s-2.4,0-3.6,0c-15,0-30,0.4-45,1
			c-30,1.2-59.6,3.6-89,7.1c-92.3,10.9-181.2,32.7-265.5,64c-0.5,0.2-1,0.3-1.4,0.5c-35.1,13.1-69.4,27.8-102.7,44.1
			c-7.9-5.3-15.7-10.8-23.4-16.4c-31.7-23-61.8-48-90.2-74.9C-50.6,256.7-158.1,31-163.4-219.9c0,0,0,0,0-0.1
			c-0.1-6.4-0.2-12.9-0.2-19.4c0-499.1,404.6-903.6,903.6-903.6S1643.6-738.4,1643.6-239.4z"/>
		<path class="st14" d="M1114.6,622c-114.1,52.1-241,81.1-374.6,81.1s-260.5-29-374.6-81.1c1.4-2.8,2.9-5.6,4.3-8.3
			c4.1-7.8,8.5-15.3,13.1-22.8c109.6,47.2,230.3,73.3,357.2,73.3s247.6-26.1,357.2-73.3c4.6,7.5,9,15,13.2,22.8
			C1111.8,616.5,1113.2,619.3,1114.6,622z"/>
		<path class="st14" d="M1159.7,824.3c-0.5,18.7-2.3,37-5.2,55c-13.3,82.2-50.4,156.5-104.1,215.4c-27.7-41.9-63.7-77.8-105.6-105.5
			c0,0,0,0,0,0c-16,8.7-32.6,16.4-49.8,23l17.5-42.1l12.1-29c-19.9,3.2-39.9,5.9-60.1,8c-40.9,4.4-82.4,6.6-124.4,6.6
			s-83.5-2.2-124.4-6.6c-20.2-2.2-40.2-4.8-60.1-8l12.1,29l17.5,42.1c-17.2-6.6-33.8-14.3-49.8-23c0,0,0,0,0,0
			c-41.9,27.7-77.9,63.6-105.6,105.5c-53.7-58.9-90.9-133.1-104.1-215.4c-2.9-18-4.7-36.3-5.2-55c19.5,7.6,39.2,14.6,59.2,21.2
			C493,882.5,614.2,902.6,740,902.6s247-20.1,360.4-57.2C1120.4,838.9,1140.2,831.8,1159.7,824.3z"/>
		<path class="st14" d="M336.9,464c-0.3-0.2-0.7-0.4-1-0.5c-7.6-3.8-15.1-7.7-22.6-11.7c-22.3-12-44-24.8-65.1-38.5
			c-14.9,25.1-27.9,51.5-38.8,79c-4,10.1-7.7,20.3-11.2,30.6c-0.5,1.4-0.9,2.7-1.3,4.1c1.3-0.7,2.7-1.4,4-2.1
			c17.2,12.8,34.9,25,53,36.6l3.4-1.6c11.1-5.1,22.4-10.1,33.7-14.8c-0.3-0.2-0.6-0.4-0.9-0.5c-1.5-0.9-3-1.7-4.5-2.6
			c-1.1-0.6-2.1-1.2-3.2-1.9c-2.7-1.6-5.4-3.2-8-4.8c-1.4-0.9-2.8-1.7-4.2-2.6c-0.7-0.4-1.3-0.8-2-1.2c-0.2-0.2-0.5-0.3-0.7-0.5
			c-1.7-1-3.5-2.1-5.2-3.2c-0.6-0.3-1.1-0.7-1.7-1c-1.6-1-3.3-2.1-4.9-3.1c-0.9-0.6-1.8-1.2-2.7-1.7c-2-1.3-4-2.6-6-3.9
			c-2-1.3-4-2.6-6-4c-0.8-0.6-1.7-1.1-2.5-1.7c-1.9-1.3-3.8-2.5-5.7-3.8c33.4-16.3,67.7-31,102.7-44.1
			C336,464.3,336.5,464.2,336.9,464z M821.3,500v54.9H691.5V393c-7.5,0.3-15,0.7-22.4,1.1c-1.9,0.1-3.7,0.2-5.6,0.4
			c-3.7,0.2-7.4,0.5-11.2,0.8c-1.8,0.1-3.7,0.3-5.6,0.4c-7.4,0.6-14.8,1.2-22.2,2c-3.7,0.4-7.4,0.7-11,1.1c-1.8,0.2-3.5,0.4-5.3,0.6
			c-0.1,0-0.2,0-0.3,0c-1.6,0.2-3.2,0.4-4.8,0.6c-0.2,0-0.4,0-0.7,0.1v104.7c-39.5,4.2-78.4,10.1-116.6,17.7
			c80.6,23.6,165.9,36.2,254.1,36.2c88.2,0,173.5-12.6,254.1-36.2C937.9,511.2,880.2,503.7,821.3,500z M896.3,154
			c-49.7-14.1-102.1-21.7-156.3-21.7s-106.6,7.5-156.3,21.7C451,191.7,338,276.2,263.7,388.5c23.5-10.6,47.5-20.5,71.9-29.6
			c24.8-9.3,50.1-17.7,75.7-25.3c103.1-30.5,212.2-47,325.1-47.3c1.2,0,2.4,0,3.6,0s2.4,0,3.6,0c112.9,0.3,222,16.8,325.1,47.3
			c25.6,7.6,50.9,16,75.7,25.3c24.4,9.1,48.3,18.9,71.9,29.6C1142,276.2,1029,191.7,896.3,154z M1281.7,522.8
			c-3.4-10.3-7.2-20.5-11.2-30.6c-10.9-27.4-23.9-53.8-38.8-79c-21.1,13.7-42.8,26.6-65.1,38.5c-7.5,4-15,7.9-22.6,11.7
			c-0.3,0.2-0.7,0.3-1,0.5c0.5,0.2,0.9,0.3,1.4,0.5c35.1,13.1,69.4,27.8,102.7,44.1c-1.9,1.3-3.8,2.6-5.7,3.8
			c-0.9,0.6-1.7,1.1-2.6,1.7c-2,1.3-4,2.7-6,4c-2,1.3-4,2.6-6,3.9c-0.9,0.6-1.8,1.2-2.7,1.7c-1.6,1-3.2,2.1-4.9,3.1
			c-0.6,0.4-1.1,0.7-1.7,1c-1.7,1.1-3.4,2.1-5.2,3.2c-0.2,0.2-0.5,0.3-0.7,0.5c-0.7,0.4-1.3,0.8-2,1.2c-1.4,0.9-2.8,1.7-4.2,2.6
			c-2.7,1.6-5.3,3.2-8,4.8c-1.1,0.6-2.1,1.2-3.2,1.9c-1.5,0.9-3,1.7-4.5,2.6c-0.3,0.2-0.6,0.3-0.9,0.5c11.3,4.8,22.6,9.7,33.7,14.8
			l3.4,1.6c18.1-11.6,35.8-23.8,53-36.6c1.3,0.7,2.7,1.4,4,2.1C1282.6,525.5,1282.2,524.1,1281.7,522.8z M821.3,554.9H691.5V393
			c-7.5,0.3-15,0.7-22.4,1.1c-1.9,0.1-3.7,0.2-5.6,0.4c-3.7,0.2-7.4,0.5-11.2,0.8c-1.8,0.1-3.7,0.3-5.6,0.4
			c-7.4,0.6-14.8,1.2-22.2,2c-3.7,0.4-7.4,0.7-11,1.1c-1.8,0.2-3.5,0.4-5.3,0.6c-0.1,0-0.2,0-0.3,0c-1.6,0.2-3.2,0.4-4.8,0.6
			c-0.2,0-0.4,0-0.7,0.1v104.7c-39.5,4.2-78.4,10.1-116.6,17.7c80.6,23.6,165.9,36.2,254.1,36.2c88.2,0,173.5-12.6,254.1-36.2
			c-56.2-11.2-113.9-18.8-172.8-22.4V554.9z M821.3,500v54.9H691.5V393c-7.5,0.3-15,0.7-22.4,1.1c-1.9,0.1-3.7,0.2-5.6,0.4
			c-3.7,0.2-7.4,0.5-11.2,0.8c-1.8,0.1-3.7,0.3-5.6,0.4c-7.4,0.6-14.8,1.2-22.2,2c-3.7,0.4-7.4,0.7-11,1.1c-1.8,0.2-3.5,0.4-5.3,0.6
			c-0.1,0-0.2,0-0.3,0c-1.6,0.2-3.2,0.4-4.8,0.6c-0.2,0-0.4,0-0.7,0.1v104.7c-39.5,4.2-78.4,10.1-116.6,17.7
			c80.6,23.6,165.9,36.2,254.1,36.2c88.2,0,173.5-12.6,254.1-36.2C937.9,511.2,880.2,503.7,821.3,500z M232.8,403
			c5.1,3.5,10.2,6.9,15.4,10.2c5-8.4,10.1-16.6,15.5-24.8C253.3,393.2,243,398,232.8,403z M821.3,500v54.9H691.5V393
			c-7.5,0.3-15,0.7-22.4,1.1c-1.9,0.1-3.7,0.2-5.6,0.4c-3.7,0.2-7.4,0.5-11.2,0.8c-1.8,0.1-3.7,0.3-5.6,0.4
			c-7.4,0.6-14.8,1.2-22.2,2c-3.7,0.4-7.4,0.7-11,1.1c-1.8,0.2-3.5,0.4-5.3,0.6c-0.1,0-0.2,0-0.3,0c-1.6,0.2-3.2,0.4-4.8,0.6
			c-0.2,0-0.4,0-0.7,0.1v104.7c-39.5,4.2-78.4,10.1-116.6,17.7c80.6,23.6,165.9,36.2,254.1,36.2c88.2,0,173.5-12.6,254.1-36.2
			C937.9,511.2,880.2,503.7,821.3,500z M1216.3,388.5c5.4,8.1,10.5,16.4,15.5,24.8c5.2-3.4,10.3-6.8,15.4-10.2
			C1237,398,1226.7,393.2,1216.3,388.5z M821.3,500v54.9H691.5v-99.1c-30,1.2-59.6,3.6-89,7.1v41.8c-39.5,4.2-78.4,10.1-116.6,17.7
			c80.6,23.6,165.9,36.2,254.1,36.2c88.2,0,173.5-12.6,254.1-36.2C937.9,511.2,880.2,503.7,821.3,500z M1226.1,561.4
			c-18.3,11.7-37.1,22.8-56.4,33.2c-18,9.8-36.4,18.9-55.1,27.4c-114.1,52.1-241,81.1-374.6,81.1s-260.5-29-374.6-81.1
			c-18.7-8.5-37.1-17.7-55.1-27.4c-19.2-10.4-38-21.5-56.4-33.2c-7.1,3.3-14.1,6.6-21.1,10c25.9,17.6,52.8,33.9,80.5,48.8
			c22.6,12.1,45.8,23.4,69.6,33.6C492.4,701,613.2,727.1,740,727.1s247.6-26.1,357.2-73.3c23.7-10.2,46.9-21.4,69.6-33.6
			c27.7-14.9,54.6-31.2,80.5-48.8C1240.2,568,1233.2,564.7,1226.1,561.4z"/>
		<path class="st14" d="M1212.5,531c-0.2,0.2-0.5,0.3-0.7,0.5c-0.7,0.4-1.3,0.8-2,1.2c-1.4,0.9-2.8,1.7-4.2,2.6
			c-2.7,1.6-5.3,3.2-8,4.8c-1.1,0.6-2.1,1.2-3.2,1.9c-1.5,0.9-3,1.7-4.5,2.6c-0.3,0.2-0.6,0.3-0.9,0.5c-1,0.6-2,1.1-3,1.7
			c-1.3,0.7-2.5,1.4-3.8,2.1c-1.7,1-3.4,1.9-5.1,2.9c-3.4,1.9-6.9,3.8-10.4,5.7c-22.6,12.2-45.8,23.4-69.6,33.6
			c-109.6,47.2-230.3,73.3-357.2,73.3s-247.6-26.1-357.2-73.3c-23.7-10.2-46.9-21.4-69.6-33.6c-3.5-1.9-6.9-3.7-10.4-5.7
			c-1.7-0.9-3.4-1.9-5.1-2.9c-1.3-0.7-2.5-1.4-3.8-2.1c-1-0.6-2-1.1-3-1.7c-0.3-0.2-0.6-0.4-0.9-0.5c-1.5-0.9-3-1.7-4.5-2.6
			c-1.1-0.6-2.1-1.2-3.2-1.9c-2.7-1.6-5.4-3.2-8-4.8c-1.4-0.8-2.8-1.7-4.2-2.6c-0.7-0.4-1.3-0.8-2-1.2c-0.2-0.2-0.5-0.3-0.7-0.5
			c22.3-8.9,45-17.2,68-24.8c0.5-0.2,0.9-0.3,1.4-0.5c84.3-27.9,173.3-47.3,265.5-57v56c-39.5,4.2-78.4,10.1-116.6,17.7
			c-22.6,4.5-45,9.6-67.1,15.3c99.8,33.9,208.1,52.4,321.2,52.4s221.4-18.5,321.2-52.4c-22.1-5.7-44.5-10.8-67.1-15.3
			c-56.2-11.2-113.9-18.8-172.8-22.4v54.9H691.5V442.4c14.9-0.6,29.9-0.9,45-0.9c1.2,0,2.4,0,3.6,0s2.4,0,3.6,0
			c26.1,0.1,52,0.9,77.7,2.5c112.4,6.9,220.4,28.2,321.7,61.7c0.5,0.2,0.9,0.3,1.4,0.5C1167.5,513.8,1190.2,522.1,1212.5,531z"/>
		<path class="st14" d="M1247.2,545.5c-8.1,4.9-16.2,9.7-24.5,14.3c-11.1,6.2-22.3,12.3-33.7,18.1c-6.5,3.3-13,6.6-19.6,9.7
			l-2.7,1.3c-18.4,8.8-37.2,17.1-56.4,24.8c-4.4,1.8-8.8,3.5-13.2,5.2C987.6,661,866.8,684.3,740,684.3S492.4,661,382.8,618.9
			c-4.4-1.7-8.8-3.4-13.1-5.2c-19.2-7.7-38-16-56.4-24.8l-2.7-1.3c-6.6-3.2-13.1-6.4-19.6-9.7c-11.4-5.8-22.6-11.9-33.7-18.1
			c-8.3-4.7-16.4-9.4-24.5-14.3c11.5-5,23-9.8,34.7-14.5l0,0c0.2,0.2,0.5,0.3,0.7,0.5c0.7,0.4,1.3,0.8,2,1.2
			c1.4,0.9,2.8,1.7,4.2,2.6c2.7,1.6,5.3,3.2,8,4.8c1.1,0.6,2.1,1.2,3.2,1.9c1.5,0.9,3,1.7,4.5,2.6c0.3,0.2,0.6,0.3,0.9,0.5
			c1,0.6,2,1.1,3,1.7c1.3,0.7,2.5,1.4,3.8,2.1c1.7,1,3.4,1.9,5.1,2.9c3.4,1.9,6.9,3.8,10.4,5.7c22.6,12.2,45.8,23.4,69.6,33.6
			c109.6,47.2,230.3,73.3,357.2,73.3s247.6-26.1,357.2-73.3c23.7-10.2,46.9-21.4,69.6-33.6c3.5-1.9,6.9-3.7,10.4-5.7
			c1.7-0.9,3.4-1.9,5.1-2.9c1.3-0.7,2.5-1.4,3.8-2.1c1-0.6,2-1.1,3-1.7c0.3-0.2,0.6-0.4,0.9-0.5c1.5-0.9,3-1.7,4.5-2.6
			c1.1-0.6,2.1-1.2,3.2-1.9c2.7-1.6,5.4-3.2,8-4.8c1.4-0.9,2.8-1.7,4.2-2.6c0.7-0.4,1.3-0.8,2-1.2c0.2-0.2,0.5-0.3,0.7-0.5l0,0
			C1224.2,535.7,1235.7,540.5,1247.2,545.5z"/>
		<path class="st14" d="M1159.7,824.3c-19.5,7.6-39.2,14.6-59.2,21.2C987,882.5,865.8,902.6,740,902.6s-247-20.1-360.5-57.2
			c-20-6.5-39.7-13.6-59.2-21.2c-51.5-20-101.3-43.7-148.9-70.6c1.7,19.5,4.4,38.7,8,57.5c27.1,141.2,106.1,263.8,216.4,347.3
			c95.7,72.4,214.9,115.4,344.2,115.4s248.5-43,344.2-115.4c110.3-83.5,189.4-206.2,216.4-347.3c3.6-18.8,6.3-38,8-57.5
			C1261,780.6,1211.2,804.2,1159.7,824.3z M740,1231.7c-123,0-233.6-52.8-310.3-137.1c27.7-41.9,63.7-77.8,105.6-105.5c0,0,0,0,0,0
			c16,8.7,32.6,16.4,49.8,23L567.5,970l-12.1-29c19.9,3.2,39.9,5.9,60.1,8c40.9,4.4,82.4,6.6,124.4,6.6s83.5-2.2,124.4-6.6
			c20.2-2.2,40.2-4.8,60.1-8l-12.1,29l-17.5,42.1c17.2-6.6,33.8-14.3,49.8-23c0,0,0,0,0,0c41.9,27.7,77.9,63.6,105.6,105.5
			C973.6,1178.8,863,1231.7,740,1231.7z"/>
		<path class="st14" d="M567.5,970l17.5,42.1c-17.2-6.6-33.8-14.3-49.8-23C545.7,982.2,556.4,975.8,567.5,970z"/>
		<path class="st14" d="M740,927.7c43.6,0,85.5,7.5,124.4,21.3c-40.9,4.4-82.4,6.6-124.4,6.6s-83.5-2.2-124.4-6.6
			C654.5,935.2,696.4,927.7,740,927.7z"/>
		<path class="st14" d="M944.8,989.1c-16,8.7-32.6,16.4-49.8,23l17.5-42.1C923.6,975.8,934.3,982.2,944.8,989.1z"/>
		<path class="st14" d="M1111.9,1299.6c0,8.9-0.3,17.7-0.9,26.4c-13.6,193-174.4,345.4-370.9,345.4S382.6,1519.1,369.1,1326
			c-0.6-8.7-0.9-17.6-0.9-26.4c0-49.9,9.8-97.5,27.7-141c9.2-22.5,20.6-43.9,33.8-63.9c76.8,84.2,187.4,137.1,310.3,137.1
			s233.6-52.8,310.3-137.1c13.2,20,24.6,41.4,33.8,63.9C1102,1202,1111.9,1249.6,1111.9,1299.6z"/>
		<path class="st14" d="M937.2,910.6L924.5,941c-19.9,3.2-39.9,5.9-60.1,8c-40.9,4.4-82.4,6.6-124.4,6.6s-83.5-2.2-124.4-6.6
			c-20.2-2.2-40.2-4.8-60.1-8l-12.7-30.4H937.2z"/>
		<line class="st14" x1="602.5" y1="400" x2="602.5" y2="363"/>
		<path class="st14" d="M821.3,369.9v24.9c-25.7-1.8-51.6-2.7-77.7-2.8c-1.2,0-2.4,0-3.6,0s-2.4,0-3.6,0c-15,0-30,0.4-45,1V363
			L821.3,369.9z"/>
	</g>
</g>
</svg>
